<?xml version="1.0" standalone="no"?>
<!DOCTYPE svg PUBLIC "-//W3C//DTD SVG 20010904//EN"
 "http://www.w3.org/TR/2001/REC-SVG-20010904/DTD/svg10.dtd">
<svg version="1.0" xmlns="http://www.w3.org/2000/svg"
 width="150.000000pt" height="150.000000pt" viewBox="0 0 150.000000 150.000000"
 preserveAspectRatio="xMidYMid meet">

<g transform="translate(0.000000,150.000000) scale(0.100000,-0.100000)"
fill="#000000" stroke="none">
<path d="M0 740 l0 -740 750 0 750 0 0 113 0 112 -80 68 -80 67 -2 443 -3 442
-57 3 -58 3 0 -36 c0 -24 4 -35 15 -35 27 0 55 -38 55 -75 0 -37 -28 -75 -55
-75 -12 0 -15 -15 -15 -75 0 -76 1 -78 42 -78 9 0 19 -6 22 -13 4 -11 -3 -12
-29 -8 -22 3 -35 1 -35 -5 0 -6 16 -11 35 -11 19 0 35 -4 35 -10 0 -5 -7 -10
-15 -10 -12 0 -15 -17 -15 -95 0 -78 3 -95 15 -95 8 0 15 -9 15 -20 0 -16 -7
-20 -35 -20 -28 0 -35 -4 -35 -20 0 -11 7 -20 15 -20 11 0 15 -11 15 -40 0
-29 -4 -40 -15 -40 -22 0 -18 -14 7 -25 26 -11 36 -58 17 -81 -14 -17 -60 -19
-77 -2 -19 19 -14 66 8 80 24 15 26 28 5 28 -11 0 -15 11 -15 40 0 29 4 40 15
40 13 0 15 33 15 240 0 207 -2 240 -15 240 -27 0 -55 38 -55 75 0 37 28 75 55
75 10 0 15 11 15 35 l0 35 -464 0 -465 0 -136 115 c-75 63 -139 115 -141 115
-2 0 -4 -333 -4 -740z m405 280 c-3 -5 -16 -15 -28 -21 -19 -9 -19 -8 3 10 28
23 34 26 25 11z m-45 -44 c0 -2 -8 -10 -17 -17 -16 -13 -17 -12 -4 4 13 16 21
21 21 13z m306 -35 c66 -30 107 -109 97 -185 -19 -140 -208 -197 -302 -91
-129 147 27 357 205 276z m-348 -26 c-6 -14 -13 -23 -15 -21 -5 5 15 46 22 46
3 0 -1 -11 -7 -25z m-31 -117 c-2 -13 -4 -5 -4 17 -1 22 1 32 4 23 2 -10 2
-28 0 -40z m463 -278 c-14 -11 -29 -20 -35 -20 -5 0 4 9 20 20 38 25 48 25 15
0z m-87 -37 c-7 -2 -19 -2 -25 0 -7 3 -2 5 12 5 14 0 19 -2 13 -5z m-46 -9
c-3 -3 -12 -4 -19 -1 -8 3 -5 6 6 6 11 1 17 -2 13 -5z m501 -36 c7 -7 12 -24
12 -38 0 -33 -17 -50 -50 -50 -33 0 -50 17 -50 50 0 33 17 50 50 50 14 0 31
-5 38 -12z"/>
<path d="M570 786 c0 -10 9 -16 21 -16 24 0 21 23 -4 28 -10 2 -17 -3 -17 -12z"/>
<path d="M1220 724 c0 -72 3 -95 13 -92 8 3 13 34 15 96 2 77 0 92 -13 92 -12
0 -15 -16 -15 -96z"/>
</g>
</svg>
